<svg width="36" height="36" viewBox="0 0 36 36" fill="none" xmlns="http://www.w3.org/2000/svg">
<path d="M16.3561 21.39C14.7279 21.39 13.1 20.7701 11.8605 19.5306C9.38196 17.052 9.38196 13.0184 11.8605 10.5399C14.3395 8.06129 18.373 8.0609 20.8516 10.5399C23.3306 13.0184 23.3306 17.052 20.8516 19.5306C19.6121 20.7701 17.9839 21.39 16.3561 21.39ZM16.3557 9.46817C14.9295 9.46817 13.5029 10.0109 12.4171 11.0968C10.2453 13.2685 10.2453 16.8019 12.4171 18.9736C14.5888 21.1454 18.1226 21.1454 20.2943 18.9736C22.4661 16.8019 22.4661 13.2685 20.2943 11.0968C19.2084 10.0113 17.7823 9.46817 16.3557 9.46817Z" fill="#331B3B"/>
<path d="M29.2719 25.8646L24.0371 20.6294C23.559 20.1513 22.8335 20.0764 22.2706 20.3935L21.1154 19.2383C23.3195 16.7444 23.236 12.9247 20.8512 10.5402C18.373 8.06126 14.339 8.06166 11.8601 10.5402C9.38149 13.0188 9.38149 17.0524 11.8601 19.5309C13.0995 20.77 14.7274 21.3904 16.3556 21.3904C17.8602 21.3904 19.3608 20.8539 20.5585 19.7956L21.7137 20.9508C21.3967 21.5136 21.4711 22.2387 21.9496 22.7173L27.1849 27.9521C27.4625 28.2302 27.8332 28.3834 28.2282 28.3834C28.6232 28.3834 28.9939 28.2302 29.2715 27.9521C29.5496 27.674 29.7028 27.3034 29.7028 26.9084C29.7028 26.5133 29.55 26.1423 29.2719 25.8646ZM12.4174 18.974C10.2456 16.8023 10.2456 13.2689 12.4174 11.0972C13.5033 10.0113 14.9294 9.46853 16.356 9.46853C17.7826 9.46853 19.2087 10.0113 20.2946 11.0972C22.4664 13.2689 22.4664 16.8023 20.2946 18.974C18.1229 21.1458 14.5887 21.1454 12.4174 18.974ZM28.715 27.3952C28.4566 27.6536 28.0005 27.6536 27.7418 27.3952L22.5066 22.16C22.2383 21.8913 22.2383 21.455 22.5066 21.1863C22.6409 21.0524 22.8169 20.9851 22.9934 20.9851C23.1694 20.9851 23.3459 21.052 23.4798 21.1863L28.7146 26.4216C28.8438 26.5507 28.9151 26.7236 28.9151 26.908C28.9151 27.0923 28.8442 27.2656 28.715 27.3952Z" fill="#331B3B"/>
<path d="M12.2343 17.2986C12.1149 17.2986 11.9972 17.2446 11.92 17.1426C11.7888 16.9693 11.8227 16.722 11.9964 16.5908L17.6802 12.289C17.7692 12.2221 17.8819 12.1953 17.9913 12.2162C18.1004 12.237 18.1962 12.3028 18.2541 12.3977L20.0142 15.2828L20.6066 14.8574C20.7823 14.7298 21.0288 14.7708 21.1564 14.9476C21.2832 15.1244 21.2431 15.3702 21.0662 15.4974L20.1292 16.1705C20.0402 16.2344 19.928 16.2592 19.8216 16.2367C19.7141 16.2151 19.6204 16.1493 19.5636 16.0559L17.809 13.1799L12.4721 17.2186C12.4005 17.2726 12.317 17.2986 12.2343 17.2986Z" fill="#331B3B"/>
<path d="M26.5795 21.8631C26.7973 21.8631 26.9734 21.687 26.9734 21.4692V2.24044C26.9734 1.15732 26.0923 0.276245 25.0092 0.276245H8.26058C7.17746 0.276245 6.29678 1.15732 6.29678 2.24044V33.7601C6.29678 34.8428 7.17785 35.7239 8.26058 35.7239H25.0088C26.0919 35.7239 26.973 34.8428 26.973 33.7601V28.975C26.973 28.7572 26.7969 28.5812 26.5791 28.5812C26.3613 28.5812 26.1853 28.7572 26.1853 28.975V29.9932H7.08451V18.3108L8.10461 19.9804C8.16251 20.0753 8.25822 20.1411 8.36732 20.162C8.39174 20.1667 8.41616 20.1691 8.44058 20.1691C8.52565 20.1691 8.60915 20.1415 8.67847 20.0895L9.92701 19.145C10.1003 19.0135 10.1346 18.7665 10.0034 18.5932C9.87187 18.4199 9.62492 18.3856 9.45162 18.5168L8.55007 19.199L7.08451 16.8004V4.79464H26.1857V10.8499L23.3479 12.8889C23.171 13.0157 23.1305 13.2619 23.2577 13.4387C23.3345 13.5459 23.4554 13.603 23.5779 13.603C23.6575 13.603 23.7378 13.5789 23.8071 13.5289L26.1857 11.82V21.4696C26.1857 21.6866 26.3617 21.8631 26.5795 21.8631ZM26.1857 30.7809V33.7597C26.1857 34.408 25.6579 34.9357 25.0092 34.9357H8.26058C7.61228 34.9357 7.08451 34.408 7.08451 33.7597V30.7809H26.1857ZM7.08451 4.00691V2.24044C7.08451 1.59175 7.61228 1.06397 8.26058 1.06397H25.0088C25.6575 1.06397 26.1853 1.59175 26.1853 2.24044V4.00691H7.08451Z" fill="#331B3B"/>
<path d="M16.6349 34.278C15.8637 34.278 15.2363 33.6505 15.2363 32.8793C15.2363 32.1082 15.8637 31.4803 16.6349 31.4803C17.4061 31.4803 18.0335 32.1082 18.0335 32.8793C18.0335 33.6505 17.4061 34.278 16.6349 34.278ZM16.6349 32.2685C16.2982 32.2685 16.024 32.5426 16.024 32.8797C16.024 33.2169 16.2982 33.4906 16.6349 33.4906C16.9717 33.4906 17.2458 33.2169 17.2458 32.8797C17.2458 32.5426 16.9721 32.2685 16.6349 32.2685Z" fill="#331B3B"/>
<path d="M19.0319 2.90247H14.2378C14.0204 2.90247 13.844 2.72602 13.844 2.50861C13.844 2.2912 14.0204 2.11475 14.2378 2.11475H19.0319C19.2497 2.11475 19.4258 2.2912 19.4258 2.50861C19.4258 2.72602 19.2497 2.90247 19.0319 2.90247Z" fill="#331B3B"/>
</svg>
