<svg width="30" height="30" viewBox="0 0 30 30" fill="none" xmlns="http://www.w3.org/2000/svg">
<g clip-path="url(#clip0_40_13)">
<path d="M15 29.7699C6.85592 29.7699 0.230164 23.1441 0.230164 15.0001C0.230164 6.85596 6.85592 0.230211 15 0.230211C23.1441 0.230211 29.7698 6.85596 29.7698 15.0001C29.7698 23.1441 23.1441 29.7699 15 29.7699ZM15.3282 20.3034C17.4544 20.3375 19.5156 20.7006 21.3894 21.3531C21.8565 19.5341 22.1292 17.4909 22.1545 15.3283H15.3282V20.3034ZM15.3282 20.9599V29.097C17.8486 28.8716 20.0323 26.0637 21.2158 21.9872C19.4008 21.3498 17.3976 20.994 15.3282 20.9599ZM14.6718 20.9599C12.602 20.994 10.5992 21.3498 8.78387 21.9875C9.96743 26.0637 12.1511 28.8716 14.6718 29.097V20.9599ZM14.6718 20.3034V15.3283H7.84549C7.87077 17.4909 8.14352 19.5341 8.61057 21.3531C10.4844 20.7006 12.5456 20.3375 14.6718 20.3034ZM7.18906 15.3283H0.894807C0.968984 18.5507 2.12628 21.509 4.01879 23.8521C5.17084 22.9219 6.51982 22.1546 8.00468 21.5749C7.50546 19.686 7.21531 17.568 7.18906 15.3283ZM7.18906 14.6718C7.21499 12.4321 7.50546 10.3141 8.00468 8.42485C6.52015 7.84521 5.17084 7.07784 4.01912 6.14767C2.12628 8.49115 0.968984 11.4494 0.894807 14.6718H7.18906ZM7.84549 14.6718H14.6718V9.69702C12.5456 9.66289 10.4844 9.29955 8.61057 8.64705C8.14352 10.466 7.87077 12.5092 7.84549 14.6718ZM14.6718 9.04059V0.903061C12.1511 1.12855 9.96743 3.93646 8.78387 8.01293C10.5992 8.65034 12.6024 9.00612 14.6718 9.04059ZM15.3282 9.04059C17.3976 9.00645 19.4008 8.65066 21.2158 8.01326C20.0323 3.93646 17.8489 1.12855 15.3282 0.903061V9.04059ZM15.3282 9.69702V14.6718H22.1545C22.1292 12.5092 21.8565 10.466 21.3894 8.64705C19.5156 9.29955 17.4544 9.66289 15.3282 9.69702ZM22.8106 14.6718H29.1052C29.031 11.4494 27.8737 8.49115 25.9809 6.14767C24.8288 7.07784 23.4799 7.84554 21.995 8.42485C22.4942 10.3144 22.7847 12.4321 22.8106 14.6718ZM22.8106 15.3283C22.7847 17.568 22.4942 19.6857 21.995 21.5749C23.4799 22.1546 24.8288 22.9219 25.9809 23.8521C27.8737 21.5086 29.0307 18.5504 29.1049 15.3283H22.8106ZM25.5565 24.353C24.4747 23.4816 23.2091 22.7605 21.8168 22.2104C20.9145 25.2457 19.4621 27.6214 17.716 28.8486C20.8088 28.243 23.5419 26.6242 25.5565 24.353ZM12.284 28.8486C10.5379 27.6214 9.08551 25.2457 8.18323 22.2107C6.79093 22.7608 5.52532 23.4819 4.44351 24.3533C6.45779 26.6242 9.19086 28.243 12.284 28.8486ZM4.44318 5.64713C5.52499 6.51855 6.79027 7.23965 8.1829 7.78975C9.08518 4.75471 10.5375 2.37906 12.2837 1.15185C9.19086 1.75709 6.45779 3.37586 4.44318 5.64713ZM17.716 1.15152C19.4621 2.37873 20.9145 4.75438 21.8168 7.78975C23.2094 7.23965 24.4747 6.51855 25.5565 5.64713C23.5419 3.37586 20.8092 1.75709 17.716 1.15152Z" fill="#331B3B"/>
</g>
<defs>
<clipPath id="clip0_40_13">
<rect width="30" height="30" fill="white" transform="matrix(1 0 0 -1 0 30)"/>
</clipPath>
</defs>
</svg>
